<?xml version="1.0" encoding="UTF-8"?>
<svg version="1.1" xmlns="http://www.w3.org/2000/svg" width="512" height="512">
<path d="M0 0 C2.40584577 1.90292886 4.79036611 3.83112821 7.16967773 5.76708984 C9.46350988 7.62155769 11.78753992 9.43538032 14.11425781 11.24829102 C20.4775064 16.20792167 26.74734502 21.27676849 32.99780273 26.37744141 C37.28334111 29.86894034 41.60234236 33.31191498 45.95922852 36.71386719 C51.00769291 40.65581884 55.99674313 44.66424139 60.95922852 48.71386719 C68.22255803 54.6385269 75.57066467 60.44656535 82.95922852 66.21386719 C91.03976056 72.52129963 99.05568992 78.89629689 106.99780273 85.37744141 C111.28334349 88.86894228 115.60241546 92.31181859 119.95922852 95.71386719 C127.11926099 101.30686834 134.1850156 107.01525934 141.20703125 112.78051758 C142.33299858 113.70159243 143.46488946 114.61549873 144.60400391 115.52026367 C152.54850896 121.91223561 157.8126356 130.12204813 161.89672852 139.33886719 C162.17895264 139.97091064 162.46117676 140.6029541 162.75195312 141.25415039 C167.60450673 152.85123332 167.25713829 164.62829132 167.24975586 176.97363281 C167.25574731 178.97543588 167.26255427 180.97723665 167.27011108 182.97903442 C167.28771983 188.39684589 167.29246442 193.81459409 167.29374266 199.23243141 C167.29516822 202.62537409 167.29944559 206.0183009 167.30473709 209.41123962 C167.32322354 221.27156589 167.33140983 233.13184731 167.32983398 244.9921875 C167.3286344 256.00863413 167.34970448 267.02488427 167.38132131 278.04128122 C167.40757191 287.52959304 167.41819754 297.01784106 167.41692317 306.50618887 C167.41641592 312.15953584 167.42196627 317.81270822 167.44327927 323.46601868 C167.46280904 328.79150947 167.46268644 334.11666184 167.448246 339.44216537 C167.44617465 341.38258745 167.45075723 343.32303153 167.46296692 345.26341629 C167.62692761 373.15604827 160.06144857 396.74179159 140.22094727 417.10449219 C121.62259847 435.33750624 97.58140574 442.31638649 72.00610352 442.41699219 C70.30118744 442.4255423 70.30118744 442.4255423 68.56182861 442.43426514 C66.16484497 442.443677 63.76784861 442.45023388 61.37084961 442.45410156 C57.73471127 442.46379922 54.09914058 442.49485678 50.46313477 442.52636719 C48.12329434 442.53289936 45.78344991 442.53814899 43.44360352 442.54199219 C42.37132507 442.55433899 41.29904663 442.56668579 40.1942749 442.57940674 C26.76813121 442.54045249 15.18646561 439.22064734 5.20922852 429.96386719 C-6.70939422 417.06139588 -7.48109293 401.70913874 -7.48217773 385.05371094 C-7.49398405 383.44900836 -7.50735606 381.84431662 -7.52220154 380.23963928 C-7.5580102 376.06109409 -7.578484 371.88264523 -7.59375 367.70397949 C-7.61880627 360.98664949 -7.6583435 354.26953172 -7.71565056 347.55240059 C-7.73189977 345.21863327 -7.73574732 342.88507099 -7.73866272 340.55125427 C-7.74843799 339.12099859 -7.7587011 337.69074613 -7.76953125 336.26049805 C-7.7738063 335.01699081 -7.77808136 333.77348358 -7.78248596 332.49229431 C-8.03580985 329.2768454 -8.56680393 327.06759271 -10.04077148 324.21386719 C-14.38358063 321.41205484 -18.54704008 321.07844696 -23.62011719 321.03686523 C-24.28391388 321.03029404 -24.94771057 321.02372284 -25.63162231 321.01695251 C-27.82660033 320.99725539 -30.02151004 320.98556503 -32.21655273 320.97558594 C-32.96755941 320.97151041 -33.71856609 320.96743488 -34.49233055 320.96323586 C-38.46737771 320.94239043 -42.44239051 320.92808212 -46.41748047 320.91870117 C-50.51655577 320.9076396 -54.61508779 320.87323885 -58.71397114 320.83352947 C-61.87191252 320.80734656 -65.02972475 320.79900789 -68.18776512 320.79541969 C-69.69840349 320.79055805 -71.20903625 320.77895598 -72.71956825 320.7603817 C-74.83789398 320.73595263 -76.95481783 320.73696102 -79.07324219 320.74389648 C-80.27664749 320.73803024 -81.4800528 320.732164 -82.71992493 320.72612 C-87.74286483 321.46386105 -90.74096523 323.59338477 -93.89172363 327.52146912 C-95.34667543 330.93064778 -95.41944341 333.58596942 -95.42553711 337.29223633 C-95.43090988 337.9857016 -95.43628265 338.67916687 -95.44181824 339.39364624 C-95.45157149 340.89408147 -95.45454781 342.39457294 -95.45146179 343.8950367 C-95.44696163 346.28075331 -95.46104922 348.66573657 -95.4798584 351.05137634 C-95.51658561 356.12636133 -95.53032049 361.20126898 -95.54077148 366.27636719 C-95.5529065 372.13799924 -95.57481146 377.9992737 -95.62077332 383.86074638 C-95.63419034 386.19149822 -95.63019906 388.52178007 -95.62536621 390.85255432 C-95.68058254 406.06906818 -98.52468236 418.90310253 -109.02514648 430.36230469 C-117.22665246 437.89624622 -128.19587196 442.29050097 -139.2956543 442.375 C-140.32152649 442.38460754 -141.34739868 442.39421509 -142.40435791 442.40411377 C-144.0574295 442.41048859 -144.0574295 442.41048859 -145.74389648 442.41699219 C-146.89508972 442.42269226 -148.04628296 442.42839233 -149.23236084 442.43426514 C-151.67337122 442.44370804 -154.11439432 442.4502463 -156.55541992 442.45410156 C-160.23567029 442.46372313 -163.91534161 442.49471877 -167.59545898 442.52636719 C-198.29436592 442.6655821 -223.84990359 436.24911926 -246.79077148 414.90136719 C-262.05354739 398.73189172 -271.20604442 376.97413443 -271.18121338 354.75926208 C-271.1841845 353.92209611 -271.18715562 353.08493013 -271.19021678 352.22239548 C-271.19887001 349.42453924 -271.20040918 346.62672597 -271.2019043 343.82885742 C-271.20653494 341.81953338 -271.21155993 339.81021021 -271.21694946 337.80088806 C-271.23005359 332.34599933 -271.2365148 326.89112289 -271.24096012 321.43622088 C-271.24389466 318.02458262 -271.24800024 314.61294769 -271.25246429 311.20131111 C-271.26613533 300.51671217 -271.27580335 289.83212088 -271.27966619 279.14751381 C-271.28414308 266.83349522 -271.30167559 254.51958785 -271.33066678 242.20560306 C-271.35232221 232.67499454 -271.36237256 223.14441722 -271.3637073 213.61378437 C-271.36475276 207.9275882 -271.37060506 202.24149663 -271.38852692 196.55532646 C-271.40507392 191.20123037 -271.40713102 185.84731676 -271.39838791 180.49320412 C-271.39762102 178.53617233 -271.40191394 176.57913046 -271.41184616 174.62212372 C-271.47694211 160.98806109 -270.88209887 148.38279854 -264.41577148 136.02636719 C-264.06877197 135.35202637 -263.72177246 134.67768555 -263.36425781 133.98291016 C-260.09330036 127.88228591 -256.05407886 122.99038968 -251.04077148 118.21386719 C-250.20803711 117.40820312 -249.37530273 116.60253906 -248.51733398 115.77246094 C-242.55278995 110.18398053 -236.23329673 105.13066842 -229.77905273 100.13183594 C-225.81480398 97.05505859 -221.92613726 93.88931659 -218.04077148 90.71386719 C-213.10161351 86.6814431 -208.13257175 82.69575291 -203.10327148 78.77636719 C-197.84321459 74.67448796 -192.67826785 70.46808681 -187.54077148 66.21386719 C-181.84927208 61.50089287 -176.10752703 56.86933875 -170.27905273 52.32714844 C-165.819879 48.84532785 -161.42340805 45.29141195 -157.04077148 41.71386719 C-151.97535158 37.57946512 -146.88010676 33.49011528 -141.72827148 29.46386719 C-135.12504912 24.30148155 -128.63863763 19.00557494 -122.17211914 13.67285156 C-86.09687041 -16.03925748 -41.28400905 -31.97754491 0 0 Z M-94.04077148 34.21386719 C-95.36050096 35.28750091 -96.68082303 36.36040659 -98.00170898 37.43261719 C-100.02873073 39.07861981 -102.0550056 40.72547824 -104.07836914 42.37597656 C-108.92478023 46.32602948 -113.82391306 50.20207362 -118.75170898 54.04980469 C-123.91678956 58.09305781 -129.00076391 62.23233966 -134.08203125 66.38012695 C-138.34388058 69.85280201 -142.6420825 73.27213025 -146.97827148 76.65136719 C-152.23832838 80.75324642 -157.40327512 84.95964756 -162.54077148 89.21386719 C-168.23227089 93.92684151 -173.97401594 98.55839563 -179.80249023 103.10058594 C-184.26166397 106.58240652 -188.65813491 110.13632242 -193.04077148 113.71386719 C-198.10621485 117.84828841 -203.20220241 121.936616 -208.35327148 125.96386719 C-210.04888613 127.29433119 -211.74396503 128.62547329 -213.4387207 129.95703125 C-214.98220187 131.16791834 -216.52900157 132.37457174 -218.07592773 133.58105469 C-227.55516152 141.11750191 -235.25140821 148.06597993 -238.04077148 160.21386719 C-238.75790426 166.65417111 -238.57835712 173.16197982 -238.54248047 179.6315918 C-238.54626891 181.58416635 -238.55177326 183.5367382 -238.55885315 185.48930359 C-238.57275738 190.76626455 -238.56167291 196.0428976 -238.54514194 201.31984019 C-238.5312359 206.85821298 -238.5377579 212.39656781 -238.54127502 217.93495178 C-238.54397299 227.23460132 -238.5305379 236.53412149 -238.50732422 245.83374023 C-238.48072501 256.56345115 -238.47896651 267.29294573 -238.49071258 278.02267832 C-238.50151757 288.37090106 -238.49528144 298.71904606 -238.4811573 309.06726265 C-238.4754203 313.45890722 -238.47546215 317.85049446 -238.4802227 322.24213982 C-238.48501914 327.42069083 -238.47478093 332.59900708 -238.45326805 337.7775135 C-238.4477359 339.67045424 -238.44720175 341.5634177 -238.45222092 343.45635986 C-238.49628456 362.46859777 -235.38532554 378.55241959 -221.68139648 392.86230469 C-208.27330465 404.80264683 -193.51166131 409.326308 -175.72827148 409.45214844 C-174.64118896 409.46022018 -173.55410645 409.46829193 -172.43408203 409.47660828 C-170.14121068 409.49040278 -167.8483192 409.50114553 -165.55541992 409.5090332 C-163.21225972 409.52058949 -160.86912657 409.54109821 -158.52612305 409.57055664 C-155.13499113 409.61317196 -151.74463769 409.62939052 -148.35327148 409.63964844 C-147.30937256 409.65715652 -146.26547363 409.67466461 -145.18994141 409.69270325 C-139.40373379 409.67545128 -135.35382271 409.51428933 -131.04077148 405.21386719 C-129.3268408 400.38109134 -128.79065186 396.12351957 -128.78540039 391.01611328 C-128.78177994 390.33371582 -128.77815948 389.65131836 -128.77442932 388.94824219 C-128.76757915 387.47784121 -128.7650216 386.00741505 -128.7663765 384.53699875 C-128.7673507 382.19715317 -128.75429252 379.8577559 -128.73739624 377.51797485 C-128.69141075 370.86927789 -128.66655901 364.22062811 -128.65991211 357.57177734 C-128.65485198 353.49157763 -128.63037564 349.41184627 -128.59458542 345.33180618 C-128.58488911 343.79073546 -128.5823989 342.24959945 -128.58775711 340.70850754 C-128.63965141 325.0419929 -125.6429694 312.11620028 -114.66577148 300.46386719 C-105.38187859 291.66860023 -94.34650822 288.13262209 -81.70288086 288.03686523 C-80.98176117 288.03029404 -80.26064148 288.02372284 -79.51766968 288.01695251 C-77.13995233 287.9973064 -74.76229809 287.9855725 -72.38452148 287.97558594 C-71.56685806 287.97151041 -70.74919464 287.96743488 -69.90675354 287.96323586 C-65.57349911 287.9424058 -61.24027601 287.92809438 -56.90698242 287.91870117 C-52.46340237 287.90768069 -48.02032913 287.87332295 -43.57692719 287.83352947 C-40.13304816 287.80719181 -36.6892864 287.79899397 -33.24531555 287.79541969 C-31.60928448 287.79059296 -29.97325724 287.77909292 -28.33732605 287.7603817 C-14.35738034 287.6105012 -2.4042888 289.33611929 8.95922852 298.21386719 C9.79196289 298.82617188 10.62469727 299.43847656 11.48266602 300.06933594 C18.4722697 306.12184764 23.51150163 316.10840587 24.95922852 325.21386719 C25.05849143 327.66481394 25.10471669 330.11811939 25.11694336 332.57104492 C25.12202408 333.29365509 25.1271048 334.01626526 25.13233948 334.76077271 C25.14300444 336.32344304 25.15163966 337.88612827 25.15845871 339.44882011 C25.17029822 341.92511208 25.18976259 344.40123359 25.21157837 346.87745667 C25.27303362 353.91572381 25.32724341 360.95397058 25.3605957 367.99243164 C25.38157081 372.30366883 25.4168913 376.61458971 25.4613533 380.92564583 C25.47548484 382.56459895 25.4842293 384.20360798 25.48740768 385.84261894 C25.49233109 388.13784671 25.51552292 390.43223795 25.54272461 392.72729492 C25.55081146 394.03125717 25.55889832 395.33521942 25.56723022 396.67869568 C26.09059539 401.3985775 27.45256241 404.83093166 30.97485352 408.06396484 C35.5203358 409.81537367 39.87863277 409.64148688 44.70922852 409.61230469 C45.75892822 409.61517487 46.80862793 409.61804504 47.89013672 409.6210022 C50.11255431 409.62304198 52.33498989 409.61751814 54.55737305 409.60498047 C57.91961122 409.58905484 61.28062355 409.60476573 64.64282227 409.62402344 C85.26285236 409.64542137 102.33652297 406.96571246 117.95922852 392.21386719 C128.76258806 380.96679823 134.29109236 367.10177201 134.22665405 351.61282349 C134.23345072 350.38786488 134.23345072 350.38786488 134.2403847 349.13815963 C134.25294835 346.42782206 134.25141358 343.71768751 134.24975586 341.00732422 C134.25574605 339.05342351 134.26255272 337.09952516 134.27011108 335.14562988 C134.28772621 329.85632399 134.29246451 324.56708288 134.29374266 319.27775049 C134.29516712 315.96912499 134.29944225 312.66051581 134.30473709 309.35189438 C134.32322103 297.79789947 134.33140957 286.24395061 134.32983398 274.68994141 C134.32863235 263.93751192 134.34974325 253.18528308 134.38132131 242.43290436 C134.40750838 233.18505956 134.41820029 223.93728022 134.41692317 214.68939865 C134.41641434 209.17319223 134.42205388 203.65716434 134.44327927 198.14099503 C134.4627031 192.95178482 134.46275771 187.76292274 134.448246 182.57369995 C134.44616211 180.67548995 134.45083364 178.77725791 134.46296692 176.87908554 C134.54597874 162.98657893 133.7448762 152.20245857 123.63500977 141.74511719 C116.18025287 134.69302599 108.21188135 128.32398324 100.04394531 122.12182617 C95.62941836 118.76178935 91.31719263 115.28695949 87.02172852 111.77636719 C82.03918948 107.70465314 77.03165383 103.67309843 71.95922852 99.71386719 C66.21903597 95.23197859 60.56229334 90.6542994 54.92016602 86.04980469 C50.07428723 82.10200383 45.17752709 78.22587821 40.25048828 74.38012695 C35.75259005 70.86011573 31.31937149 67.26529831 26.89672852 63.65136719 C21.11068405 58.9253614 15.24435682 54.33718283 9.30297852 49.80761719 C5.4603169 46.85172364 1.71269638 43.78164816 -2.04077148 40.71386719 C-4.0681619 39.0652571 -6.09661774 37.41797167 -8.12573242 35.77148438 C-9.35039425 34.77539278 -10.57264504 33.7763248 -11.79174805 32.7734375 C-40.10618658 9.54661975 -66.29806254 11.45207427 -94.04077148 34.21386719 Z " fill="#000000" transform="translate(308.040771484375,43.7861328125)"/>
</svg>
