<?xml version="1.0" ?><!DOCTYPE svg  PUBLIC '-//W3C//DTD SVG 1.1//EN'  'http://www.w3.org/Graphics/SVG/1.1/DTD/svg11.dtd'><svg height="100%" style="fill-rule:evenodd;clip-rule:evenodd;stroke-linejoin:round;stroke-miterlimit:2;" version="1.1" viewBox="0 0 32 32" width="100%" xml:space="preserve" xmlns="http://www.w3.org/2000/svg" xmlns:serif="http://www.serif.com/" xmlns:xlink="http://www.w3.org/1999/xlink"><g id="Icon"/><path d="M9.5,14.002l-0,-0.002c-2.523,0 -4.5,1.477 -4.5,4c0,0.552 0.448,1 1,1c0.552,0 1,-0.448 1,-1c0,-1.342 1.158,-2 2.5,-2l0.066,0c0.648,0 1.258,0.302 1.651,0.815c1.008,1.44 2.763,2.185 4.783,2.185c2.016,0 3.769,-0.74 4.793,-2.147c0.387,-0.517 0.995,-0.821 1.641,-0.821c0.077,-0 0.153,-0.009 0.227,-0.027c1.305,0.083 2.339,1.169 2.339,2.495c0,-0 0,7 0,7c0,1.38 -1.12,2.5 -2.5,2.5c0,0 -13,0 -13,0c-1.38,0 -2.5,-1.12 -2.5,-2.5c0,-0.552 -0.448,-1 -1,-1c-0.552,0 -1,0.448 -1,1c0,2.484 2.016,4.5 4.5,4.5l13,0c2.484,0 4.5,-2.016 4.5,-4.5l0,-7c0,-2.484 -2.016,-4.5 -4.5,-4.5l0,2c0,0 -0.007,-2 -0.007,-2c0,0 -0.024,-0 -0.061,0.002c-0.021,0.002 -0.107,-0.006 -0.242,0.037c-1.183,0.07 -2.284,0.659 -3.001,1.619c-0.003,0.004 -0.006,0.008 -0.009,0.012c-0.67,0.926 -1.856,1.33 -3.18,1.33c-1.315,0 -2.496,-0.397 -3.143,-1.331c-0.007,-0.01 -0.014,-0.02 -0.021,-0.03c-0.77,-1.031 -1.982,-1.639 -3.269,-1.639l-0.067,0.002Zm-2.5,8.998l-0,-2.5c0,-0.552 -0.448,-1 -1,-1c-0.552,-0 -1,0.448 -1,1l0,2.5c0,0.552 0.448,1 1,1c0.552,-0 1,-0.448 1,-1Zm15.655,-6.995c-0.025,-0.002 -0.051,-0.003 -0.077,-0.004c-0.026,-0.001 -0.052,-0.001 -0.078,-0.001c0,0 0.056,0.02 0.155,0.005Zm0.335,-0.142c-0.048,0.032 -0.099,0.059 -0.151,0.083c-0.052,0.023 -0.106,0.042 -0.162,0.055c0.082,-0.015 0.188,-0.052 0.313,-0.138Zm-6.99,-14.863c-3.587,-0 -6.5,2.913 -6.5,6.5c0,3.587 2.913,6.5 6.5,6.5c3.587,-0 6.5,-2.913 6.5,-6.5c0,-3.587 -2.913,-6.5 -6.5,-6.5Zm0,2c2.484,-0 4.5,2.016 4.5,4.5c0,2.484 -2.016,4.5 -4.5,4.5c-2.484,-0 -4.5,-2.016 -4.5,-4.5c0,-2.484 2.016,-4.5 4.5,-4.5Z"/></svg>